<svg id="Capa_3" data-name="Capa 3" xmlns="http://www.w3.org/2000/svg" viewBox="0 0 1146.5 389.33"><defs><style>.cls-1{fill:none;}.cls-2{fill:#aaabaf;}.cls-3{fill:#114e94;}.cls-4{fill:#333;}</style></defs><title>principal horizontal</title><path class="cls-1" d="M442.33,377.33" transform="translate(-155.5 -13.33)"/><path class="cls-1" d="M561.75,124" transform="translate(-155.5 -13.33)"/><path class="cls-1" d="M541.75,123.25" transform="translate(-155.5 -13.33)"/><polygon class="cls-2" points="393.88 134.17 338.88 134.29 343.13 117.79 388.63 117.67 393.88 134.17"/><polygon class="cls-2" points="401.25 158.29 333.13 158.17 337.25 140.54 395.88 140.29 401.25 158.29"/><polygon class="cls-2" points="409.25 182.54 327.5 183.17 331.75 164.67 403.5 164.17 409.25 182.54"/><polygon class="cls-2" points="417.63 209.92 321.38 210.04 326.25 189.04 410.75 188.54 417.63 209.92"/><polygon class="cls-2" points="425.88 237.17 315 237.29 319.75 216.17 419.25 216.42 425.88 237.17"/><polygon class="cls-2" points="433.88 263.04 309 262.92 313.5 243.67 427.75 243.67 433.88 263.04"/><polygon class="cls-2" points="441.63 288.79 303.25 289.04 307.5 268.92 435.88 268.92 441.63 288.79"/><polygon class="cls-2" points="449.67 313.17 297.67 312.67 301.88 295.04 443.5 295.17 449.67 313.17"/><polygon class="cls-2" points="457.83 339.83 291.5 340 296.33 319 451.17 318.83 457.83 339.83"/><polygon class="cls-2" points="290 345.83 459.5 345.83 464.75 365.92 285.25 366.42 290 345.83"/><polygon class="cls-2" points="344.38 110.79 386 110.42 380.25 91.92 348.75 92.17 344.38 110.79"/><path class="cls-1" d="M575,125.25" transform="translate(-155.5 -13.33)"/><path class="cls-3" d="M645.06,196h21v74.2h-21V196Z" transform="translate(-155.5 -13.33)"/><path class="cls-3" d="M751.59,196v74.2H734.31l-32.75-39.54v39.54H681V196h17.28L731,235.52V196h20.56Z" transform="translate(-155.5 -13.33)"/><path class="cls-3" d="M816.15,231.49H834.7v30.74c-8.59,6.15-20.35,9.43-31.16,9.43-23.64,0-40.92-16-40.92-38.58S779.89,194.5,804,194.5c13.89,0,25.12,4.77,32.44,13.57L823,220.15c-5.09-5.62-10.92-8.27-18-8.27-12.72,0-21.2,8.37-21.2,21.2,0,12.51,8.48,21.2,21,21.2a26.66,26.66,0,0,0,11.34-2.44V231.49Z" transform="translate(-155.5 -13.33)"/><path class="cls-3" d="M907.62,254v16.22H848V196h58.2V212.2H868.83v12.51h33v15.69h-33V254h38.8Z" transform="translate(-155.5 -13.33)"/><path class="cls-3" d="M989.88,196v74.2H972.6l-32.75-39.54v39.54H919.28V196h17.28l32.75,39.54V196h20.57Z" transform="translate(-155.5 -13.33)"/><path class="cls-3" d="M1004.72,196h21v74.2h-21V196Z" transform="translate(-155.5 -13.33)"/><path class="cls-3" d="M1100.22,254v16.22h-59.57V196h58.2V212.2h-37.42v12.51h33v15.69h-33V254h38.8Z" transform="translate(-155.5 -13.33)"/><path class="cls-3" d="M1144.32,250.46h-11.45v19.72h-21V196h33.92c20.25,0,33,10.49,33,27.46,0,10.92-5.3,19-14.52,23.43l16,23.32h-22.47Zm0.21-37.95h-11.66v21.73h11.66c8.69,0,13-4,13-10.81S1153.22,212.52,1144.53,212.52Z" transform="translate(-155.5 -13.33)"/><path class="cls-3" d="M1203.25,189.72h20.14l-19.93,16.11H1189Zm-13.89,23h20.14v57.45h-20.14V212.73Z" transform="translate(-155.5 -13.33)"/><path class="cls-3" d="M1273.21,255.76h-31.38L1236,270.18h-21.41l32.75-74.2H1268l32.86,74.2H1279Zm-6.15-15.48-9.54-23.75L1248,240.29h19.08Z" transform="translate(-155.5 -13.33)"/><path class="cls-2" d="M706.92,356.88V374H644v-78.4h61.49v17.14H665.93V326h34.83v16.58H665.93v14.34h41Z" transform="translate(-155.5 -13.33)"/><path class="cls-2" d="M719.25,295.61h22.18v60.82h37.41V374H719.25v-78.4Z" transform="translate(-155.5 -13.33)"/><path class="cls-2" d="M850.51,356.88V374H787.56v-78.4h61.49v17.14H809.51V326h34.83v16.58H809.51v14.34h41Zm-27.89-67.65H807.39l15-17h21.28Z" transform="translate(-155.5 -13.33)"/><path class="cls-2" d="M858.68,334.81C858.68,311,876.94,294,901.8,294c14.45,0,26.1,5.26,33.71,14.78L921.4,321.6c-4.93-5.94-11-9.18-18.48-9.18-12.88,0-21.84,9-21.84,22.4s9,22.4,21.84,22.4c7.5,0,13.55-3.25,18.48-9.18l14.11,12.77c-7.62,9.52-19.26,14.78-33.71,14.78C876.94,375.58,858.68,358.67,858.68,334.81Z" transform="translate(-155.5 -13.33)"/><path class="cls-2" d="M961.39,313.2H937.31V295.61h70.22V313.2h-24V374H961.39V313.2Z" transform="translate(-155.5 -13.33)"/><path class="cls-2" d="M1050.09,353.18H1038V374h-22.18v-78.4h35.84c21.39,0,34.83,11.09,34.83,29,0,11.54-5.6,20-15.34,24.75L1088.06,374h-23.74Zm0.22-40.1H1038v23h12.32c9.18,0,13.78-4.26,13.78-11.42S1059.5,313.08,1050.31,313.08Z" transform="translate(-155.5 -13.33)"/><path class="cls-2" d="M1098.7,295.61h22.18V374H1098.7v-78.4Z" transform="translate(-155.5 -13.33)"/><path class="cls-2" d="M1132.63,334.81c0-23.86,18.26-40.77,43.12-40.77,14.45,0,26.1,5.26,33.71,14.78l-14.11,12.77c-4.93-5.94-11-9.18-18.48-9.18-12.88,0-21.84,9-21.84,22.4s9,22.4,21.84,22.4c7.5,0,13.55-3.25,18.48-9.18l14.11,12.77c-7.62,9.52-19.26,14.78-33.71,14.78C1150.89,375.58,1132.63,358.67,1132.63,334.81Z" transform="translate(-155.5 -13.33)"/><path class="cls-2" d="M1270.5,358.78h-33.15L1231.19,374h-22.62l34.61-78.4H1265l34.72,78.4h-23.07Zm-6.5-16.35-10.08-25.09-10.08,25.09H1264Z" transform="translate(-155.5 -13.33)"/><rect class="cls-3" x="486.98" y="373.17" width="659.52" height="14.49"/><path class="cls-4" d="M250.5,401.5L282,236l0.5,166.5h30V197H265L234,351.5,203,197H177c-20,0-21.5,15-21.5,15V402h29.83l0.33-160.67,32,161.33h32Z" transform="translate(-155.5 -13.33)"/><path class="cls-4" d="M436,364.67H360V197.33l-19.33.33S328,201.33,328,226.33s0.67,176.33.67,176.33H436.33Z" transform="translate(-155.5 -13.33)"/><polygon class="cls-4" points="284.5 375 284.17 387.67 466.17 387 466.17 374.67 284.5 375"/><path class="cls-1" d="M442.33,377.33" transform="translate(-155.5 -13.33)"/><path class="cls-1" d="M446.33,359.67" transform="translate(-155.5 -13.33)"/><path class="cls-1" d="M619.67,327.67" transform="translate(-155.5 -13.33)"/><polygon class="cls-3" points="331.83 373.67 393.5 169.67 362.5 154.67 385.5 0 319.83 200.67 352.17 219 331.83 373.67"/><path class="cls-1" d="M606.33,290.33" transform="translate(-155.5 -13.33)"/></svg>